HIERARCHY
ROOT root
{
	OFFSET	0	13.1	24.9
	CHANNELS 6  Xposition Yposition Zposition Xrotation Yrotation Zrotation
	JOINT spine_1
	{
		OFFSET	0	9.99999	0
		CHANNELS 3  Xrotation Yrotation Zrotation
		JOINT spine_2
		{
			OFFSET	0	112	-10
			CHANNELS 3  Xrotation Yrotation Zrotation
			JOINT spine_3
			{
				OFFSET	0	206.5	19.3
				CHANNELS 3  Xrotation Yrotation Zrotation
				JOINT spine_4
				{
					OFFSET	0	110.4	14.6
					CHANNELS 3  Xrotation Yrotation Zrotation
					JOINT neck_1
					{
						OFFSET	0	71.8	-50.3
						CHANNELS 3  Xrotation Yrotation Zrotation
						JOINT neck_2
						{
							OFFSET	0	86.2	-25.8
							CHANNELS 3  Xrotation Yrotation Zrotation
							JOINT head_ee
							{
								OFFSET	0	179.8	-8.7
								CHANNELS 3  Xrotation Yrotation Zrotation
								End Site
								{
									OFFSET	1	0	0
								}
							}
						}
					}
					JOINT left_clavicle
					{
						OFFSET	-43.2	22.4	-70.8
						CHANNELS 3  Xrotation Yrotation Zrotation
						JOINT left_shoulder
						{
							OFFSET	-93.9	-5.79999	48.7
							CHANNELS 3  Xrotation Yrotation Zrotation
							JOINT left_elbow
							{
								OFFSET	-291.4	-30.8	15.2
								CHANNELS 3  Xrotation Yrotation Zrotation
								JOINT left_lowarm_twist
								{
									OFFSET	-110.7	-3.89999	13.6
									CHANNELS 3  Xrotation Yrotation Zrotation
									JOINT left_hand
									{
										OFFSET	-110.7	-3.89999	13.6
										CHANNELS 3  Xrotation Yrotation Zrotation
										JOINT left_ee
										{
											OFFSET	-80.8	-5.10001	12.1
											CHANNELS 3  Xrotation Yrotation Zrotation
											End Site
											{
												OFFSET	1	0	0
											}
										}
									}
								}
							}
						}
					}
					JOINT right_clavicle
					{
						OFFSET	43.2	22.4	-70.8
						CHANNELS 3  Xrotation Yrotation Zrotation
						JOINT right_shoulder
						{
							OFFSET	93.9	-5.79999	48.7
							CHANNELS 3  Xrotation Yrotation Zrotation
							JOINT right_elbow
							{
								OFFSET	291.4	-30.8	15.2
								CHANNELS 3  Xrotation Yrotation Zrotation
								JOINT right_lowarm_twist
								{
									OFFSET	110.7	-3.89999	13.6
									CHANNELS 3  Xrotation Yrotation Zrotation
									JOINT right_hand
									{
										OFFSET	110.7	-3.89999	13.6
										CHANNELS 3  Xrotation Yrotation Zrotation
										JOINT right_ee
										{
											OFFSET	80.8	-5.10001	12.1
											CHANNELS 3  Xrotation Yrotation Zrotation
											End Site
											{
												OFFSET	1	0	0
											}
										}
									}
								}
							}
						}
					}
				}
			}
		}
	}
	JOINT left_hip
	{
		OFFSET	-82.8	-127.5	0.300001
		CHANNELS 3  Xrotation Yrotation Zrotation
		JOINT left_knee
		{
			OFFSET	-28.2	-396.7	2.2
			CHANNELS 3  Xrotation Yrotation Zrotation
			JOINT left_ankle
			{
				OFFSET	-11.7	-411.3	35.4
				CHANNELS 3  Xrotation Yrotation Zrotation
				JOINT left_toes
				{
					OFFSET	0	-60	-88.6
					CHANNELS 3  Xrotation Yrotation Zrotation
					JOINT left_foot_ee
					{
						OFFSET	-22.5	-16.5	-42.2
						CHANNELS 3  Xrotation Yrotation Zrotation
						End Site
						{
							OFFSET	1	0	0
						}
					}
				}
			}
		}
	}
	JOINT right_hip
	{
		OFFSET	82.8	-127.5	0.300001
		CHANNELS 3  Xrotation Yrotation Zrotation
		JOINT right_knee
		{
			OFFSET	28.2	-396.7	2.2
			CHANNELS 3  Xrotation Yrotation Zrotation
			JOINT right_ankle
			{
				OFFSET	11.7	-411.3	35.4
				CHANNELS 3  Xrotation Yrotation Zrotation
				JOINT right_toes
				{
					OFFSET	0	-60	-88.6
					CHANNELS 3  Xrotation Yrotation Zrotation
					JOINT right_foot_ee
					{
						OFFSET	22.5	-16.5	-42.2
						CHANNELS 3  Xrotation Yrotation Zrotation
						End Site
						{
							OFFSET	1	0	0
						}
					}
				}
			}
		}
	}
}
MOTION
Frames: 8
Frame Time: 0.02
2800.94 716.97 -1473.77 -0.797321732008 43.5499860373 -4.03802193784 0.76109 0.295657 0.92579 0.761535 0.23615 0.942725 0.765627 0.0457288 0.970774 0.764367 0.198464 0.951372 -27.7503 19.7046 11.278 -30.4056 33.6283 22.3958 -0.0 0.0 -0.0 2.80145 22.8607 6.54141 -13.0432 -10.3244 49.2566 3.68389 -61.2622 2.18183 -59.5271 -5.224 5.08621 -1.5027 8.10446 -6.36768 -0.0 0.0 -0.0 11.06 10.6548 -22.1661 -24.7088 22.5189 -62.6981 0.463987 12.9446 -0.0526376 85.9698 4.54301 8.90986 -9.416 -30.7838 42.2947 0.0 0.0 0.0 -21.596 27.6516 12.7441 -15.4507 0.322074 2.34204 21.2307 3.29846 -2.88813 -14.2563 0.0 0.0 -0.0 0.0 -0.0 21.7104 19.9306 -5.10824 1.68089 0.0728586 0.247633 3.42827 29.105 0.625668 -8.8123 0.0 0.0 0.0 0.0 0.0 
2800.94 716.97 -1473.77 -0.787558759673 42.7976577634 -4.05229051797 0.76109 0.295657 0.92579 0.761535 0.23615 0.942725 0.765627 0.0457288 0.970774 0.764367 0.198464 0.951372 -27.7503 19.7046 11.278 -30.4056 33.6283 22.3958 -0.0 0.0 -0.0 2.80145 22.8607 6.54141 -13.0432 -10.3244 49.2566 3.68389 -61.2622 2.18183 -59.5271 -5.224 5.08621 -1.5027 8.10446 -6.36768 -0.0 0.0 -0.0 11.06 10.6548 -22.1661 -24.7088 22.5189 -62.6981 0.463987 12.9446 -0.0526376 85.9698 4.54301 8.90986 -9.416 -30.7838 42.2947 0.0 0.0 0.0 -21.596 27.6516 12.7441 -15.4507 0.322074 2.34204 21.2307 3.29846 -2.88813 -14.2563 0.0 0.0 -0.0 0.0 -0.0 21.7104 19.9306 -5.10824 1.68089 0.0728586 0.247633 3.42827 29.105 0.625668 -8.8123 0.0 0.0 0.0 0.0 0.0 
2800.94 716.97 -1473.77 -0.772633206059 41.5885012731 -4.07451212513 0.76109 0.295657 0.92579 0.761535 0.23615 0.942725 0.765627 0.0457288 0.970774 0.764367 0.198464 0.951372 -27.7503 19.7046 11.278 -30.4056 33.6283 22.3958 -0.0 0.0 -0.0 2.80145 22.8607 6.54141 -13.0432 -10.3244 49.2566 3.68389 -61.2622 2.18183 -59.5271 -5.224 5.08621 -1.5027 8.10446 -6.36768 -0.0 0.0 -0.0 11.06 10.6548 -22.1661 -24.7088 22.5189 -62.6981 0.463987 12.9446 -0.0526376 85.9698 4.54301 8.90986 -9.416 -30.7838 42.2947 0.0 0.0 0.0 -21.596 27.6516 12.7441 -15.4507 0.322074 2.34204 21.2307 3.29846 -2.88813 -14.2563 0.0 0.0 -0.0 0.0 -0.0 21.7104 19.9306 -5.10824 1.68089 0.0728586 0.247633 3.42827 29.105 0.625668 -8.8123 0.0 0.0 0.0 0.0 0.0 
2800.94 716.97 -1473.77 -0.76089995231 40.5830407479 -4.09236516041 0.76109 0.295657 0.92579 0.761535 0.23615 0.942725 0.765627 0.0457288 0.970774 0.764367 0.198464 0.951372 -27.7503 19.7046 11.278 -30.4056 33.6283 22.3958 -0.0 0.0 -0.0 2.80145 22.8607 6.54141 -13.0432 -10.3244 49.2566 3.68389 -61.2622 2.18183 -59.5271 -5.224 5.08621 -1.5027 8.10446 -6.36768 -0.0 0.0 -0.0 11.06 10.6548 -22.1661 -24.7088 22.5189 -62.6981 0.463987 12.9446 -0.0526376 85.9698 4.54301 8.90986 -9.416 -30.7838 42.2947 0.0 0.0 0.0 -21.596 27.6516 12.7441 -15.4507 0.322074 2.34204 21.2307 3.29846 -2.88813 -14.2563 0.0 0.0 -0.0 0.0 -0.0 21.7104 19.9306 -5.10824 1.68089 0.0728586 0.247633 3.42827 29.105 0.625668 -8.8123 0.0 0.0 0.0 0.0 0.0 
2800.94 716.97 -1473.77 -0.750016377311 39.6026351356 -4.10926376804 0.76109 0.295657 0.92579 0.761535 0.23615 0.942725 0.765627 0.0457288 0.970774 0.764367 0.198464 0.951372 -27.7503 19.7046 11.278 -30.4056 33.6283 22.3958 -0.0 0.0 -0.0 2.80145 22.8607 6.54141 -13.0432 -10.3244 49.2566 3.68389 -61.2622 2.18183 -59.5271 -5.224 5.08621 -1.5027 8.10446 -6.36768 -0.0 0.0 -0.0 11.06 10.6548 -22.1661 -24.7088 22.5189 -62.6981 0.463987 12.9446 -0.0526376 85.9698 4.54301 8.90986 -9.416 -30.7838 42.2947 0.0 0.0 0.0 -21.596 27.6516 12.7441 -15.4507 0.322074 2.34204 21.2307 3.29846 -2.88813 -14.2563 0.0 0.0 -0.0 0.0 -0.0 21.7104 19.9306 -5.10824 1.68089 0.0728586 0.247633 3.42827 29.105 0.625668 -8.8123 0.0 0.0 0.0 0.0 0.0 
2791.79766837 717.859 -1474.99203617 -0.512705694406 37.0526679152 -4.1416076331 0.809556 0.148606 0.894532 0.809997 0.0913858 0.902175 0.811577 -0.0874993 0.90256 0.810444 0.0561353 0.905052 -26.3494 20.0513 9.65868 -29.1133 34.7295 20.6579 -0.0 0.0 -0.0 3.23967 23.4513 7.16317 -14.4536 -10.3064 49.9342 3.20924 -57.8163 1.77251 -59.2602 -5.19089 5.07755 -1.37249 9.48907 -4.88761 -0.0 0.0 -0.0 11.3469 11.6286 -22.7973 -24.8491 24.4038 -62.3966 0.521141 14.4755 -0.0661847 84.7104 4.39188 8.85269 -9.2643 -30.6302 41.3355 0.0 0.0 0.0 -19.8533 27.4479 11.9979 -20.5594 0.288569 3.12491 26.0011 4.74593 -3.44758 -12.4278 0.0 0.0 -0.0 0.0 -0.0 20.9407 19.3927 -4.54426 0.237802 0.00986516 0.0351591 6.24854 29.6388 1.13685 -8.40267 0.0 0.0 0.0 0.0 0.0 
2791.80912903 717.859 -1475.07491203 -0.509239293575 36.5329762577 -4.14739529455 0.809556 0.148606 0.894532 0.809997 0.0913858 0.902175 0.811577 -0.0874993 0.90256 0.810444 0.0561353 0.905052 -26.3494 20.0513 9.65868 -29.1133 34.7295 20.6579 -0.0 0.0 -0.0 3.23967 23.4513 7.16317 -14.4536 -10.3064 49.9342 3.20924 -57.8163 1.77251 -59.2602 -5.19089 5.07755 -1.37249 9.48907 -4.88761 -0.0 0.0 -0.0 11.3469 11.6286 -22.7973 -24.8491 24.4038 -62.3966 0.521141 14.4755 -0.0661847 84.7104 4.39188 8.85269 -9.2643 -30.6302 41.3355 0.0 0.0 0.0 -19.8533 27.4479 11.9979 -20.5594 0.288569 3.12491 26.0011 4.74593 -3.44758 -12.4278 0.0 0.0 -0.0 0.0 -0.0 20.9407 19.3927 -4.54426 0.237802 0.00986516 0.0351591 6.24854 29.6388 1.13685 -8.40267 0.0 0.0 0.0 0.0 0.0 
2791.82003019 717.859 -1475.14903978 -0.506209663012 36.0675711754 -4.15251272433 0.809556 0.148606 0.894532 0.809997 0.0913858 0.902175 0.811577 -0.0874993 0.90256 0.810444 0.0561353 0.905052 -26.3494 20.0513 9.65868 -29.1133 34.7295 20.6579 -0.0 0.0 -0.0 3.23967 23.4513 7.16317 -14.4536 -10.3064 49.9342 3.20924 -57.8163 1.77251 -59.2602 -5.19089 5.07755 -1.37249 9.48907 -4.88761 -0.0 0.0 -0.0 11.3469 11.6286 -22.7973 -24.8491 24.4038 -62.3966 0.521141 14.4755 -0.0661847 84.7104 4.39188 8.85269 -9.2643 -30.6302 41.3355 0.0 0.0 0.0 -19.8533 27.4479 11.9979 -20.5594 0.288569 3.12491 26.0011 4.74593 -3.44758 -12.4278 0.0 0.0 -0.0 0.0 -0.0 20.9407 19.3927 -4.54426 0.237802 0.00986516 0.0351591 6.24854 29.6388 1.13685 -8.40267 0.0 0.0 0.0 0.0 0.0 
